<svg id="cart" fill="currentColor" xmlns="http://www.w3.org/2000/svg" viewBox="0 0 24 24" width="100%" ><path fill-rule="evenodd" clip-rule="evenodd" d="M9.875 20.5a.125.125 0 1 0 0-.25.125.125 0 0 0 0 .25ZM8 20.375a1.875 1.875 0 1 1 3.75 0 1.875 1.875 0 0 1-3.75 0ZM19.5 20.5a.125.125 0 1 0 0-.25.125.125 0 0 0 0 .25Zm-1.875-.125a1.875 1.875 0 1 1 3.75 0 1.875 1.875 0 0 1-3.75 0ZM1.875 2.875a1 1 0 0 1 1-1h3.5a1 1 0 0 1 .98.804L8.07 6.25h14.055a1 1 0 0 1 .982 1.187l-1.401 7.35A2.75 2.75 0 0 1 18.966 17h-8.488a2.75 2.75 0 0 1-2.739-2.213l-1.46-7.3a.997.997 0 0 1-.017-.08l-.707-3.532h-2.68a1 1 0 0 1-1-1ZM8.471 8.25l1.23 6.146a.75.75 0 0 0 .75.604h8.544a.75.75 0 0 0 .748-.6l1.173-6.15H8.471Z" fill="#2E3A59"/></svg>