<svg id="logo" fill="currentColor" xmlns="http://www.w3.org/2000/svg" viewBox="0 0 158 19" width="100%"><path d="M.321 18V.545h12.17v3.427H4.54v3.58h7.33v3.434H4.54v3.588h7.952V18H.32ZM30.977 6.87h-4.261a3.693 3.693 0 0 0-.35-1.185 2.881 2.881 0 0 0-.698-.904c-.29-.25-.634-.44-1.032-.57a3.949 3.949 0 0 0-1.304-.205c-.846 0-1.576.207-2.19.622-.608.415-1.077 1.014-1.406 1.798-.324.784-.486 1.733-.486 2.847 0 1.159.165 2.13.494 2.915.335.778.804 1.366 1.407 1.764.608.392 1.326.588 2.156.588.466 0 .889-.06 1.27-.18.386-.118.724-.292 1.014-.52.295-.232.537-.513.724-.843.194-.335.327-.713.4-1.133l4.262.025a6.455 6.455 0 0 1-.673 2.284 7.294 7.294 0 0 1-1.526 2.054c-.647.614-1.437 1.102-2.369 1.466-.926.364-1.988.546-3.187.546-1.58 0-2.995-.347-4.245-1.04-1.244-.699-2.227-1.716-2.949-3.051-.721-1.335-1.082-2.96-1.082-4.875 0-1.92.367-3.549 1.1-4.884.732-1.335 1.724-2.35 2.974-3.042 1.25-.694 2.65-1.04 4.202-1.04 1.056 0 2.034.148 2.931.443.898.29 1.688.716 2.37 1.278a6.54 6.54 0 0 1 1.662 2.054c.426.813.69 1.742.792 2.787Zm18.889 2.403c0 1.92-.37 3.548-1.108 4.883-.739 1.335-1.739 2.35-3 3.043-1.256.693-2.665 1.04-4.227 1.04-1.569 0-2.98-.35-4.236-1.049-1.256-.699-2.253-1.713-2.992-3.042-.733-1.335-1.1-2.96-1.1-4.875 0-1.92.367-3.549 1.1-4.884.739-1.335 1.736-2.35 2.992-3.042C38.55.653 39.962.307 41.53.307c1.562 0 2.971.346 4.227 1.04 1.261.693 2.261 1.707 3 3.042.738 1.335 1.108 2.963 1.108 4.884Zm-4.313 0c0-1.137-.162-2.097-.485-2.88-.319-.785-.779-1.379-1.381-1.782-.597-.404-1.316-.605-2.156-.605-.836 0-1.554.201-2.157.605-.602.403-1.065.997-1.389 1.781-.318.784-.477 1.744-.477 2.88 0 1.137.159 2.097.477 2.881.324.784.787 1.378 1.39 1.782.602.403 1.32.605 2.156.605.84 0 1.56-.202 2.156-.605.602-.404 1.062-.998 1.38-1.782.324-.784.486-1.744.486-2.88ZM52.33.545h5.224l4.432 10.807h.205L66.62.545h5.225V18h-4.108V7.278h-.145L63.4 17.89h-2.625L56.582 7.22h-.145V18h-4.108V.545Zm22.148 0h5.225l4.431 10.807h.205L88.77.545h5.224V18h-4.108V7.278h-.144L85.547 17.89h-2.625L78.73 7.22h-.145V18h-4.108V.545ZM96.626 18V.545h12.17v3.427h-7.952v3.58h7.33v3.434h-7.33v3.588h7.952V18h-12.17Zm14.812 0V.545h7.21c1.307 0 2.435.236 3.384.708.955.466 1.69 1.136 2.207 2.011.517.87.776 1.9.776 3.094 0 1.21-.264 2.239-.793 3.085-.528.841-1.278 1.483-2.25 1.926-.971.438-2.122.657-3.451.657h-4.56V8.702h3.776c.636 0 1.167-.083 1.593-.247.432-.17.759-.427.98-.768.222-.346.333-.79.333-1.33 0-.539-.111-.985-.333-1.337-.221-.358-.548-.625-.98-.801-.432-.182-.963-.273-1.593-.273h-2.08V18h-4.219Zm9.827-7.977L125.612 18h-4.603l-4.261-7.977h4.517Zm21.908-3.154h-4.262a3.7 3.7 0 0 0-.349-1.184 2.876 2.876 0 0 0-.699-.904c-.29-.25-.634-.44-1.031-.57a3.95 3.95 0 0 0-1.304-.205c-.847 0-1.577.207-2.191.622-.608.415-1.076 1.014-1.406 1.798-.324.784-.486 1.733-.486 2.847 0 1.159.165 2.13.495 2.915.335.778.804 1.366 1.406 1.764.608.392 1.327.588 2.156.588.466 0 .889-.06 1.27-.18.386-.118.724-.292 1.014-.52.296-.232.537-.513.725-.843a3.45 3.45 0 0 0 .4-1.133l4.262.025a6.459 6.459 0 0 1-.674 2.284 7.299 7.299 0 0 1-1.525 2.054c-.648.614-1.438 1.102-2.37 1.466-.926.364-1.988.546-3.187.546-1.58 0-2.994-.347-4.244-1.04-1.245-.699-2.228-1.716-2.949-3.051-.722-1.335-1.083-2.96-1.083-4.875 0-1.92.367-3.549 1.1-4.884.733-1.335 1.724-2.35 2.974-3.042 1.25-.694 2.651-1.04 4.202-1.04 1.057 0 2.034.148 2.932.443.897.29 1.687.716 2.369 1.278a6.534 6.534 0 0 1 1.662 2.054c.426.813.69 1.742.793 2.787ZM145.587 18V.545h12.17v3.427h-7.952v3.58h7.33v3.434h-7.33v3.588h7.952V18h-12.17Z" fill="#2E3A59"/></svg>